<svg width="16" height="19" viewBox="0 0 16 19" fill="none" xmlns="http://www.w3.org/2000/svg">
<g clip-path="url(#clip0_561_372)">
<g clip-path="url(#clip1_561_372)">
<path d="M10.125 2.5C10.125 3.12227 9.62227 3.625 9 3.625H1.125C0.502734 3.625 0 3.12227 0 2.5C0 1.87773 0.502734 1.375 1.125 1.375H9C9.62227 1.375 10.125 1.87773 10.125 2.5ZM10.125 11.5C10.125 12.1223 9.62227 12.625 9 12.625H1.125C0.502734 12.625 0 12.1223 0 11.5C0 10.8777 0.502734 10.375 1.125 10.375H9C9.62227 10.375 10.125 10.8777 10.125 11.5ZM0 7C0 6.37773 0.502734 5.875 1.125 5.875H14.625C15.2473 5.875 15.75 6.37773 15.75 7C15.75 7.62227 15.2473 8.125 14.625 8.125H1.125C0.502734 8.125 0 7.62227 0 7ZM15.75 16C15.75 16.6223 15.2473 17.125 14.625 17.125H1.125C0.502734 17.125 0 16.6223 0 16C0 15.3777 0.502734 14.875 1.125 14.875H14.625C15.2473 14.875 15.75 15.3777 15.75 16Z" fill="#349A51"/>
</g>
</g>
<defs>
<clipPath id="clip0_561_372">
<rect width="15.75" height="18" fill="white" transform="translate(0 0.25)"/>
</clipPath>
<clipPath id="clip1_561_372">
<path d="M0 0.25H15.75V18.25H0V0.25Z" fill="white"/>
</clipPath>
</defs>
</svg>
