<svg width="18" height="19" viewBox="0 0 18 19" fill="none" xmlns="http://www.w3.org/2000/svg">
<path d="M18 18.25H0V0.25H18V18.25Z" stroke="#E5E7EB"/>
<path d="M5.2418 2.52813L4.87617 3.625H2.25C1.00898 3.625 0 4.63398 0 5.875V14.875C0 16.116 1.00898 17.125 2.25 17.125H15.75C16.991 17.125 18 16.116 18 14.875V5.875C18 4.63398 16.991 3.625 15.75 3.625H13.1238L12.7582 2.52813C12.5297 1.83906 11.8863 1.375 11.1586 1.375H6.84141C6.11367 1.375 5.47031 1.83906 5.2418 2.52813ZM9 7C9.89511 7 10.7536 7.35558 11.3865 7.98851C12.0194 8.62145 12.375 9.47989 12.375 10.375C12.375 11.2701 12.0194 12.1286 11.3865 12.7615C10.7536 13.3944 9.89511 13.75 9 13.75C8.10489 13.75 7.24645 13.3944 6.61351 12.7615C5.98058 12.1286 5.625 11.2701 5.625 10.375C5.625 9.47989 5.98058 8.62145 6.61351 7.98851C7.24645 7.35558 8.10489 7 9 7Z" fill="#349A51"/>
</svg>
